<svg class="icon" viewBox="0 0 1024 1024" xmlns="http://www.w3.org/2000/svg" width="200" height="200"><defs><style/></defs><path d="M987.429 895.744l-109.715 63.744L768 895.744V768.037l109.714-63.744 109.715 63.744v127.707zM877.714 662.016L731.43 747.008v169.765l146.285 84.992L1024 916.773V747.008l-146.286-84.992z" fill="#99CC67"/><path d="M218.88 914.286c-100.827 0-182.309-95.964-182.309-196.791V209.957c0-100.828 81.482-173.386 182.309-173.386h439.954c100.828 0 182.309 72.558 182.309 173.386v448.329h36.571v-448.33C877.714 88.76 780.032 0 658.834 0H218.88C97.646 0 0 88.759 0 209.957v507.538c0 121.198 97.646 233.362 218.88 233.362h475.977v-36.571H218.88z" fill="#99CC67"/><path d="M165.669 649.91a18.286 18.286 0 1 0-6.949 35.877 260.754 260.754 0 0 0 50.322 5.23c40.631 0 74.277-11.556 100.425-34.56 62.172-54.71 56.503-153.198 56.247-156.16V292.571a18.286 18.286 0 0 0-36.571 0v208.896c0 .842 4.681 84.956-43.996 127.635-27.318 23.99-67.474 30.976-119.478 20.809m425.8-3.145c-47.176 13.86-101.741 2.706-132.827-27.32a18.286 18.286 0 0 0-25.417 26.296c28.818 27.867 72.777 43.373 117.212 43.373 17.371 0 34.742-2.377 51.382-7.314 43.338-12.8 72.887-40.594 81.189-76.215 3.62-15.616 4.315-30.427 2.121-44.032-9.508-57.892-62.427-76.47-101.12-90.039l-10.24-3.657c-58.295-21.065-90.331-48.53-100.644-86.455-4.828-17.7-1.354-36.352 9.764-52.59 11.3-16.493 28.526-27.428 45.97-29.183 42.423-4.535 86.602 23.296 115.676 44.544a18.286 18.286 0 1 0 21.577-29.55c-33.902-24.759-84.992-57.051-140.946-51.383-28.05 2.89-55.113 19.639-72.412 44.873a100.06 100.06 0 0 0-14.92 82.908c18.102 66.194 79.14 95.195 123.5 111.25l10.57 3.73c41.655 14.629 71.607 27.612 77.13 61.44 1.425 8.887.877 18.908-1.683 29.88-5.193 22.454-25.6 40.484-55.881 49.444" fill="#99CC67"/></svg>